<svg xmlns="http://www.w3.org/2000/svg" xmlns:xlink="http://www.w3.org/1999/xlink" width="24" height="24" viewBox="0 0 24 24" preserveAspectRatio="xMinYMid meet"><defs><style>.cls-1{fill:#fff}.cls-2{fill:#7ca4eb}.cls-3{fill:#deeffc}.cls-4{fill:#bfe1f8}.cls-5{fill:url(#verlauf_blau_hg)}.cls-6{fill:url(#verlauf_blau_mitte)}.cls-7{fill:url(#verlauf_blau_hg-2)}.cls-8{fill:url(#verlauf_blau_mitte-2)}.cls-9{fill:url(#verlaug_blau_innen)}.cls-10{fill:url(#verlaug_blau_innen-2)}.cls-11{fill:url(#verlauf_blau_mitte-3)}</style><linearGradient id="verlauf_blau_hg" x1="8.17" y1="10.94" x2="8.17" y2="24" gradientUnits="userSpaceOnUse"><stop offset="0" stop-color="#76a1f0"/><stop offset="1" stop-color="#6b90d5"/></linearGradient><linearGradient id="verlauf_blau_mitte" x1="8.15" y1="11.83" x2="8.15" y2="23.12" gradientUnits="userSpaceOnUse"><stop offset="0" stop-color="#6be0f7"/><stop offset="1" stop-color="#82b4fb"/></linearGradient><linearGradient id="verlauf_blau_hg-2" x1="2276.61" y1="8.86" x2="2276.61" y2="24" gradientTransform="matrix(-.36 0 0 1 834.02 0)" xlink:href="#verlauf_blau_hg"/><linearGradient id="verlauf_blau_mitte-2" x1="2337.43" y1="9.96" x2="2337.43" y2="22.93" gradientTransform="matrix(-.33 0 0 1 799.63 0)" xlink:href="#verlauf_blau_mitte"/><linearGradient id="verlaug_blau_innen" x1="8.15" y1="12.8" x2="8.15" y2="22.21" gradientUnits="userSpaceOnUse"><stop offset="0" stop-color="#8bb4f0"/><stop offset="1" stop-color="#7c9aef"/></linearGradient><linearGradient id="verlaug_blau_innen-2" x1="1581.41" y1="11.29" x2="1581.41" y2="21.66" gradientTransform="matrix(-.43 0 0 1 703.47 0)" xlink:href="#verlaug_blau_innen"/><linearGradient id="verlauf_blau_mitte-3" x1="8.03" y1="14.22" x2="8.03" y2="18.02" xlink:href="#verlauf_blau_mitte"/></defs><title>q4_icon_24-01</title><path class="cls-1" d="M2.13 11.42l7.8-4.6 12 2.3-7.1 4.5-12.7-2.2z"/><path class="cls-2" d="M20.05 17.8l-13-2.64v-15l13 1.81V17.8z"/><path class="cls-3" d="M19.39 16.88L7.71 14.5V1.12l11.68 1.54v14.22z"/><path class="cls-4" d="M18.76 16.16L8.33 14V1.81l10.43 1.32v13.03z"/><path class="cls-2" d="M17.78 20.01l-13-2.64V2.36l13 1.81v15.84z"/><path class="cls-3" d="M17.11 19.08L5.44 16.7V3.32l11.67 1.54v14.22z"/><path class="cls-4" d="M16.49 18.36L6.06 16.2V4.02l10.43 1.32v13.02z"/><path class="cls-5" d="M1.43 11.56v9.17a.78.78 0 0 0 .6.78L14.92 24V13.13L2.08 11a.58.58 0 0 0-.65.56z"/><path class="cls-6" d="M2 12.35v7.94a.49.49 0 0 0 .39.5l11.82 2.33v-9.24l-11.67-2a.48.48 0 0 0-.54.47z"/><path class="cls-7" d="M22.43 9.47v9.17c0 .39-.12.72-.27.78L14.9 24V13.13l7.23-4.27c.16-.06.3.23.3.61z"/><path class="cls-8" d="M21.92 10.48v7.93c0 .25-.07.47-.16.51l-6.45 4V13.7l6.38-3.7c.12-.08.23.16.23.48z"/><path class="cls-9" d="M2.82 13.23v6.59a.42.42 0 0 0 .32.42l10.34 2v-7.7L3.27 12.81a.4.4 0 0 0-.45.42z"/><path class="cls-10" d="M21.3 11.7v6.37c0 .2-.06.37-.15.41l-5.09 3.18v-7.41l5-2.95c.14-.04.24.15.24.4z"/><path d="M10.86 7.22l5 .67v1l-5-.66zM10.7 4.83l.77.11a18.23 18.23 0 0 0-2.77 6.49 8.38 8.38 0 0 0-1 .2 11.93 11.93 0 0 0-1.4-3.46 5.4 5.4 0 0 1 .79-.49A6.24 6.24 0 0 1 8 9.7a23.68 23.68 0 0 1 2.7-4.87z"/><path class="cls-2" d="M5.13 9.94l-3.4 2v-.9l3.4-2v.9zM22.23 9.77l-2.6-.5v-.9l2.6.5v.9z"/><path class="cls-11" d="M10.28 18l-4.5-.76a.63.63 0 0 1-.45-.55v-2a.46.46 0 0 1 .45-.46l4.5.76a.46.46 0 0 1 .46.46v2a.62.62 0 0 1-.46.55z"/><path class="cls-1" d="M9.54 17.16l-3.13-.5a.38.38 0 0 1-.41-.38v-.83a.39.39 0 0 1 .38-.39l3.13.5a.4.4 0 0 1 .39.39v.83a.39.39 0 0 1-.36.38z"/><path d="M10.83 9.74l5 .66v1l-5-.66z"/></svg>
