<svg xmlns="http://www.w3.org/2000/svg" xmlns:xlink="http://www.w3.org/1999/xlink" viewBox="0 0 24 24"><defs><style>.a{fill:url(#a);}.b{fill:#231f20;}.c{fill:url(#b);}.d{fill:url(#c);}</style><linearGradient id="a" x1="12" y1="0.86" x2="12" y2="21.86" gradientUnits="userSpaceOnUse"><stop offset="0" stop-color="#b2b3b3"/><stop offset="1" stop-color="#848d8c"/></linearGradient><linearGradient id="b" x1="12" y1="19" x2="12" y2="2.74" gradientUnits="userSpaceOnUse"><stop offset="0" stop-color="#404041"/><stop offset="1" stop-color="#231f20"/></linearGradient><linearGradient id="c" x1="6.92" y1="5.36" x2="18.03" y2="17.88" gradientUnits="userSpaceOnUse"><stop offset="0" stop-color="#d1d4d3"/><stop offset="1" stop-color="#848d8c"/></linearGradient></defs><rect class="a" width="24" height="22.5" rx="0.79"/><rect class="b" x="3" y="22.5" width="3" height="1.5"/><rect class="b" x="18" y="22.5" width="3" height="1.5"/><rect class="c" x="2.25" y="2.09" width="19.5" height="18"/><rect class="d" x="3.75" y="3.59" width="16.5" height="15"/><rect class="b" x="1.86" y="5.13" width="2.25" height="4.5" transform="translate(10.38 4.36) rotate(90)"/><path class="b" d="M11.38,14.89,8,11.48a.51.51,0,0,1,0-.74L8.71,10a.51.51,0,0,1,.74,0l2.3,2.29,4.93-4.92a.53.53,0,0,1,.74,0l.74.74a.53.53,0,0,1,0,.75l-6,6a.51.51,0,0,1-.74,0Z" transform="translate(0.01 -0.04)"/><rect class="b" x="1.86" y="12.26" width="2.25" height="4.5" transform="translate(17.51 11.48) rotate(90)"/></svg>