<?xml version="1.0" encoding="utf-8"?>
<!-- Generator: Adobe Illustrator 23.1.0, SVG Export Plug-In . SVG Version: 6.00 Build 0)  -->
<svg version="1.1" id="Ebene_1" xmlns="http://www.w3.org/2000/svg" xmlns:xlink="http://www.w3.org/1999/xlink" x="0px" y="0px"
	 viewBox="0 0 454 562" style="enable-background:new 0 0 454 562;" xml:space="preserve">
<style type="text/css">
	.st0{fill:#76A1F0;}
	.st1{fill:#7CA4EB;}
	.st2{fill:#DEEFFC;}
	.st3{fill:#BFE1F8;}
	.st4{fill:url(#SVGID_1_);}
	.st5{fill:url(#SVGID_2_);}
	.st6{fill:url(#SVGID_3_);}
	.st7{fill:url(#SVGID_4_);}
	.st8{fill:url(#SVGID_5_);}
	.st9{fill:url(#SVGID_6_);}
	.st10{fill:#FFFFFF;}
	.st11{fill:url(#SVGID_7_);}
</style>
<polygon class="st0" points="232.7,162.9 6.38,270.97 5.71,251.98 232.03,143.92 "/>
<polygon class="st0" points="449.21,220.29 215.21,179.29 215.21,160.29 449.21,201.29 "/>
<polygon class="st1" points="411.35,412.59 117.37,351.17 117.37,2.13 411.35,44.1 "/>
<polygon class="st2" points="396.3,390.96 132.42,335.69 132.42,24.37 396.3,60.2 "/>
<polygon class="st3" points="382.25,374.26 146.46,324.11 146.46,40.57 382.25,71.28 "/>
<polygon class="st1" points="356.98,466.82 63,405.41 63,56.37 356.98,98.33 "/>
<polygon class="st2" points="341.93,445.2 78.05,389.92 78.05,78.61 341.93,114.44 "/>
<polygon class="st3" points="327.89,428.5 92.09,378.34 92.09,94.81 327.89,125.52 "/>
<linearGradient id="SVGID_1_" gradientUnits="userSpaceOnUse" x1="145.7959" y1="249.8813" x2="145.7959" y2="553.7079">
	<stop  offset="9.681973e-08" style="stop-color:#76A1F0"/>
	<stop  offset="1" style="stop-color:#6B90D5"/>
</linearGradient>
<path class="st4" d="M0.01,264.23v213.34c0,8.95,5.49,16.61,13.02,18.18l278.54,57.96v-252.8l-277.4-50.85
	C6.74,248.69,0.01,255.42,0.01,264.23z"/>
<linearGradient id="SVGID_2_" gradientUnits="userSpaceOnUse" x1="145.1712" y1="270.6615" x2="145.1712" y2="533.1765">
	<stop  offset="0" style="stop-color:#6BE0F7"/>
	<stop  offset="1" style="stop-color:#82B4FB"/>
</linearGradient>
<path class="st5" d="M13.33,282.63v184.69c0,5.79,3.5,10.75,8.31,11.78l255.37,54.08V318.3L25.03,270.82
	C18.89,269.65,13.33,275.27,13.33,282.63z"/>
<linearGradient id="SVGID_3_" gradientUnits="userSpaceOnUse" x1="2104.2039" y1="201.41" x2="2104.2039" y2="553.721" gradientTransform="matrix(-0.3581 0 0 1 1126.0178 0)">
	<stop  offset="9.681973e-08" style="stop-color:#76A1F0"/>
	<stop  offset="1" style="stop-color:#6B90D5"/>
</linearGradient>
<path class="st6" d="M453.65,215.75V429.1c0,8.95-2.43,16.61-5.78,18.18l-156.7,106.45v-252.8l156.19-99.34
	C450.67,200.22,453.65,206.95,453.65,215.75z"/>
<linearGradient id="SVGID_4_" gradientUnits="userSpaceOnUse" x1="2140.3857" y1="227.1103" x2="2140.3857" y2="528.867" gradientTransform="matrix(-0.3341 0 0 1 1086.4731 0)">
	<stop  offset="0" style="stop-color:#6BE0F7"/>
	<stop  offset="1" style="stop-color:#82B4FB"/>
</linearGradient>
<path class="st7" d="M442.62,239.08v184.69c0,5.79-1.45,10.75-3.44,11.78l-139.22,93.32V313.99l137.82-86.72
	C440.32,226.1,442.62,231.71,442.62,239.08z"/>
<linearGradient id="SVGID_5_" gradientUnits="userSpaceOnUse" x1="145.2766" y1="293.1765" x2="145.2766" y2="512.1204">
	<stop  offset="0" style="stop-color:#8BB4F0"/>
	<stop  offset="1" style="stop-color:#7C9AEF"/>
</linearGradient>
<path class="st8" d="M30.21,303.12V456.5c0,4.81,2.91,8.93,6.9,9.78l223.24,45.84V333.67L39.93,293.3
	C34.83,292.33,30.21,297,30.21,303.12z"/>
<linearGradient id="SVGID_6_" gradientUnits="userSpaceOnUse" x1="1475.3049" y1="258.0445" x2="1475.3049" y2="499.1765" gradientTransform="matrix(-0.433 0 0 1 1011.5725 0)">
	<stop  offset="0" style="stop-color:#8BB4F0"/>
	<stop  offset="1" style="stop-color:#7C9AEF"/>
</linearGradient>
<path class="st9" d="M429.35,267.65v148.13c0,4.65-1.37,8.63-3.26,9.45l-110,73.96V326.83l108.67-68.67
	C427.17,257.23,429.35,261.74,429.35,267.65z"/>
<g>
	<path class="st10" d="M190.44,391.18l-95.18-17.05c-3.54,0-6.41-4.38-6.41-9.77v-22.22c0-5.4,2.87-9.77,6.41-9.77l95.18,17.05
		c3.54,0,6.41,4.38,6.41,9.77v22.22C196.85,386.8,193.98,391.18,190.44,391.18z"/>
	<g>
		<linearGradient id="SVGID_7_" gradientUnits="userSpaceOnUse" x1="142.977" y1="331.857" x2="142.977" y2="391.6765">
			<stop  offset="0" style="stop-color:#6BE0F7"/>
			<stop  offset="1" style="stop-color:#82B4FB"/>
		</linearGradient>
		<path class="st11" d="M192.04,385.39c-16.19-2.9-32.38-5.8-48.57-8.7c-10.82-1.94-21.64-3.88-32.47-5.82
			c-3.53-0.63-7.05-1.26-10.58-1.89c-1.04-0.19-4.27-0.25-5.17-0.85c1.35,0.91-0.05-1.15-0.1-1.58c-0.13-1.06-0.21-0.78-0.31-2.22
			c-0.03-0.42,0.01-0.85,0-1.27c-0.05-2.46,0-4.92,0-7.38c0-4.45-0.33-9.04,0-13.48c0.03-0.42,0.03-1.14,0.11-1.55
			c0.13-0.47,0.26-0.93,0.39-1.4c0.93-0.96,0.75-1.31-0.56-1.04c1.03,1.42-1.89-0.52-0.8,0c0.58,0.28,1.5,0.27,2.13,0.38
			c3.31,0.59,6.62,1.19,9.93,1.78c21.76,3.9,43.52,7.8,65.27,11.69c4.37,0.78,8.73,1.56,13.1,2.35c1.24,0.22,4.92,0.26,6.01,1.01
			c-0.67-0.46,0.35,3.01,0.41,3.91c0.05,0.76,0,1.54,0,2.3c0,2.89,0,5.78,0,8.67s0,5.78,0,8.67c0,0.73,0.05,1.49,0,2.22
			c-0.02,0.36,0,0.49-0.06,0.97c-0.13,1.16-1.43,3.16-0.35,3.03c-7.57,0.93-7.66,12.94,0,12c15.9-1.96,12.41-23.04,12.41-34.51
			c0-6.68-0.79-14.33-7.36-17.94c-2.55-1.4-4.04-1.21-7.44-1.82c-22.94-4.11-45.87-8.22-68.81-12.33
			c-7.33-1.31-14.72-3.06-22.12-3.96c-16.26-1.98-14.27,19.11-14.27,29.53c0,5.58-0.67,11.91,2.06,17c1.06,1.97,2.5,3.82,4.38,5.06
			c1.03,0.68,2.15,1.21,3.34,1.57c0.07,0.02,2.71,0.4,1.05,0.13c0.6,0.1,1.21,0.21,1.81,0.32c8.89,1.62,17.8,3.19,26.7,4.78
			c22.22,3.98,44.44,7.96,66.66,11.94C196.4,398.31,199.64,386.75,192.04,385.39z"/>
	</g>
</g>
<g>
	<path d="M212.82,115l3.12,7.93c-12.7,10.58-26.83,28.69-42.38,54.32c-15.55,25.64-27.42,50.47-35.61,74.51l-6.59,4.71
		c-5.46,4.07-9.17,7.2-11.13,9.4c-0.77-4.58-2.46-12.22-5.07-22.93l-2.49-9.8c-3.56-14.06-6.87-24.68-9.93-31.86
		c-3.06-7.18-6.48-12.41-10.28-15.7c6.41-8.35,12.29-11.64,17.63-9.86c4.57,1.52,9.64,12.82,15.22,33.9l2.76,10.57
		c10.03-22.87,22.91-44.06,38.64-63.56C182.44,137.12,197.81,123.25,212.82,115z"/>
</g>
<g>
	<path d="M200.07,225.8l108.34,19.77V269l-108.34-19.77V225.8z"/>
</g>
<g>
	<path d="M199.94,171l108.34,19.54v23.14l-108.34-19.54V171z"/>
</g>
</svg>
